<?xml version="1.0" standalone="no"?>
<!DOCTYPE svg PUBLIC "-//W3C//DTD SVG 20010904//EN"
 "http://www.w3.org/TR/2001/REC-SVG-20010904/DTD/svg10.dtd">
<svg version="1.0" xmlns="http://www.w3.org/2000/svg"
 width="1024.000000pt" height="1024.000000pt" viewBox="0 0 1024.000000 1024.000000"
 preserveAspectRatio="xMidYMid meet">
<metadata>
Created by potrace 1.16, written by Peter Selinger 2001-2019
</metadata>
<g transform="translate(0.000000,1024.000000) scale(0.100000,-0.100000)"
fill="#000000" stroke="none">
<path d="M3417 8150 c-359 -43 -661 -323 -806 -747 -34 -98 -371 -1757 -371
-1824 0 -35 -2 -37 -62 -63 -92 -40 -214 -125 -292 -202 -125 -126 -213 -282
-259 -461 -21 -86 -22 -102 -22 -618 l0 -530 27 -95 c14 -52 40 -126 56 -163
94 -205 278 -389 484 -481 l67 -29 3 -226 c3 -220 4 -228 29 -281 33 -70 89
-126 159 -159 54 -26 57 -26 290 -26 232 0 236 0 291 26 69 33 124 88 158 159
25 53 26 64 29 252 l4 198 1918 0 1918 0 4 -197 c3 -189 4 -200 29 -253 33
-70 89 -126 159 -159 54 -26 57 -26 290 -26 232 0 236 0 291 26 69 33 124 88
158 159 25 53 26 61 29 281 l3 227 64 27 c95 40 205 116 289 200 127 128 204
262 255 445 l26 95 0 530 c0 516 -1 532 -22 618 -75 294 -270 531 -539 656
-79 38 -80 38 -77 72 6 51 -330 1711 -368 1822 -17 51 -53 135 -79 187 -144
285 -351 465 -625 542 l-80 23 -1680 1 c-924 1 -1711 -2 -1748 -6z m3400 -651
c79 -38 158 -148 207 -289 15 -41 95 -420 180 -842 l153 -768 -2237 0 -2237 0
153 768 c85 422 165 801 180 842 49 140 127 250 206 289 l43 21 1654 0 1655 0
43 -21z m-3924 -2888 c133 -52 246 -175 288 -312 28 -91 23 -225 -10 -312 -51
-131 -176 -247 -312 -288 -91 -28 -225 -23 -312 10 -131 51 -247 176 -288 312
-28 91 -23 225 10 312 50 128 172 244 304 287 85 28 236 23 320 -9z m4800 0
c133 -52 246 -175 288 -312 28 -91 23 -225 -10 -312 -51 -131 -176 -247 -312
-288 -91 -28 -225 -23 -312 10 -131 51 -247 176 -288 312 -28 91 -23 225 10
312 50 128 172 244 304 287 85 28 236 23 320 -9z"/>
</g>
</svg>
